<svg id="Group_710" data-name="Group 710" xmlns="http://www.w3.org/2000/svg" xmlns:xlink="http://www.w3.org/1999/xlink" width="64.02" height="66.169" viewBox="0 0 64.02 66.169">
  <defs>
    <clipPath id="clip-path">
      <rect id="Rectangle_474" data-name="Rectangle 474" width="64.02" height="66.169" fill="#fff"/>
    </clipPath>
  </defs>
  <g id="Group_710-2" data-name="Group 710" clip-path="url(#clip-path)">
    <path id="Path_21412" data-name="Path 21412" d="M38.412,46.958v.829q0,7.2,0,14.407a3.738,3.738,0,0,1-3.966,3.972q-15.238.005-30.476,0A3.735,3.735,0,0,1,0,62.2Q0,33.081,0,3.967A3.734,3.734,0,0,1,3.973,0Q19.21,0,34.448,0A3.734,3.734,0,0,1,38.41,3.976q.007,7.737,0,15.475v.827H59.883a3.771,3.771,0,0,1,4.137,4.135q0,9.2,0,18.409a3.775,3.775,0,0,1-4.138,4.135H38.412ZM26.449,2.137c-.278,1.093-.542,2.145-.816,3.195-.219.84-.5,1.069-1.35,1.07q-5.068.005-10.136,0c-.863,0-1.148-.222-1.364-1.051-.278-1.066-.546-2.134-.822-3.216-2.637,0-5.214,0-7.791,0-1.488,0-2.035.555-2.035,2.062q0,28.881,0,57.761c0,1.538.542,2.075,2.09,2.075H34.1c1.676,0,2.178-.5,2.178-2.188q0-28.747,0-57.494c0-.2.006-.4,0-.6a1.577,1.577,0,0,0-1.612-1.607c-2.711-.019-5.422-.007-8.213-.007M38.443,44.823h.478q10.567,0,21.134,0a1.641,1.641,0,0,0,1.829-1.866q.007-5.735,0-11.469c0-.169-.03-.337-.044-.482H38.451v3.148c1.389,0,2.74-.009,4.091,0a1.07,1.07,0,0,1,1.2,1.192q.018,3.067,0,6.135a1.081,1.081,0,0,1-1.192,1.2c-.266.009-.533,0-.8,0H38.443Zm0-16.053H61.832V26.714H38.444Zm23.385-4.257c.161-1.37-.474-2.1-1.82-2.1q-10.5,0-20.993,0c-.191,0-.382.024-.571.037v2.063ZM24.223,2.177H14.186l.521,2.063h9.007l.509-2.063M38.453,40.508h3.108V36.3H38.453Z" transform="translate(0 0)" fill="#fff"/>
    <path id="Path_21413" data-name="Path 21413" d="M35.953,126.53a12.8,12.8,0,1,1,12.826,12.912A12.82,12.82,0,0,1,35.953,126.53m2.134.119A10.668,10.668,0,1,0,48.846,115.97a10.686,10.686,0,0,0-10.759,10.679" transform="translate(-29.548 -93.556)" fill="#00e8cc"/>
    <path id="Path_21414" data-name="Path 21414" d="M83.182,343.61c-1.334,0-2.667,0-4,0-.8,0-1.27-.4-1.285-1.042-.016-.668.475-1.087,1.3-1.089q4.034-.007,8.068,0c.794,0,1.271.4,1.287,1.041.016.665-.48,1.086-1.305,1.09-1.356.006-2.711,0-4.067,0" transform="translate(-64.02 -280.644)" fill="#00e8cc"/>
    <path id="Path_21415" data-name="Path 21415" d="M275.464,191.705c1.511,0,3.023,0,4.534,0,.795,0,1.272.4,1.288,1.039.017.668-.476,1.091-1.3,1.092q-4.567.006-9.135,0c-.8,0-1.271-.394-1.287-1.04-.017-.668.474-1.088,1.3-1.091,1.533-.006,3.067,0,4.6,0" transform="translate(-221.541 -157.554)" fill="#fff"/>
    <path id="Path_21416" data-name="Path 21416" d="M275.455,211.812c-1.534,0-3.067,0-4.6,0-.8,0-1.274-.389-1.294-1.034-.021-.669.471-1.1,1.3-1.1q4.567-.007,9.135,0c.8,0,1.274.392,1.295,1.032.021.665-.476,1.095-1.3,1.1-1.511.006-3.023,0-4.534,0" transform="translate(-221.54 -172.324)" fill="#fff"/>
    <path id="Path_21417" data-name="Path 21417" d="M302.668,229.765c-.667,0-1.334.013-2,0a1.067,1.067,0,1,1,0-2.125q2.033-.021,4.067,0a1.067,1.067,0,1,1,0,2.125c-.689.016-1.378,0-2.067,0" transform="translate(-246.153 -187.077)" fill="#fff"/>
    <path id="Path_21418" data-name="Path 21418" d="M77.116,168.9c1.174-1.182,2.314-2.332,3.457-3.479,1.067-1.071,2.131-2.143,3.206-3.205a1.081,1.081,0,1,1,1.5,1.517q-3.575,3.591-7.165,7.167a1.1,1.1,0,0,1-1.706.14q-2.006-1.491-4-3a1.069,1.069,0,1,1,1.255-1.714c1.144.837,2.273,1.7,3.449,2.576" transform="translate(-59.062 -132.951)" fill="#00e8cc"/>
  </g>
</svg>
