<svg id="Group_715" data-name="Group 715" xmlns="http://www.w3.org/2000/svg" xmlns:xlink="http://www.w3.org/1999/xlink" width="60.506" height="64.453" viewBox="0 0 60.506 64.453">
  <defs>
    <clipPath id="clip-path">
      <rect id="Rectangle_479" data-name="Rectangle 479" width="60.506" height="64.453" fill="none"/>
    </clipPath>
  </defs>
  <g id="Group_715-2" data-name="Group 715" clip-path="url(#clip-path)">
    <path id="Path_21456" data-name="Path 21456" d="M68.093,51.63h-4.8v.7q0,3.95,0,7.9c0,.241.056.556-.07.708-.228.274-.568.61-.87.621-.259.009-.584-.366-.78-.643-.12-.168-.063-.47-.063-.712q-.005-3.884,0-7.768v-.784H58.82V69.762c.022.022.047.071.081.078.576.129,1.033.4.919,1.071s-.644.757-1.221.756c-2.633-.007-5.266,0-7.9,0-2.036,0-4.072.017-6.108-.011-.63-.009-.889.2-.86.843.033.751.005,1.5.008,2.257,0,.893.059.95.931.951q6.74,0,13.48,0c.155,0,.31,0,.465,0,.793.009,1.231.329,1.229.9s-.429.891-1.235.892q-7.072.006-14.144,0a2.291,2.291,0,0,1-2.508-2.525c0-.907-.013-1.815,0-2.722a2.266,2.266,0,0,1,2.329-2.368c.507-.019,1.016,0,1.575,0V51.624c-.235-.012-.469-.034-.7-.034-1.439,0-2.877.008-4.316-.005a1.734,1.734,0,0,1-1.9-1.31,1.792,1.792,0,0,1,.953-2.061q12.169-7.566,24.338-15.131a2.539,2.539,0,0,1,2.92.007q12.136,7.555,24.281,15.1a1.789,1.789,0,0,1,.968,2.17,1.734,1.734,0,0,1-1.9,1.228c-1.417.012-2.833,0-4.25,0h-.784v.791q0,3.917,0,7.834a3.052,3.052,0,0,1-.034.66c-.1.462-.422.816-.884.7a1.806,1.806,0,0,1-.821-.709c-.11-.145-.047-.428-.047-.649q0-3.917,0-7.834V51.63H80.954v.72q0,3.95,0,7.9c0,.22.058.508-.055.646-.228.279-.555.658-.841.657s-.609-.382-.834-.662c-.113-.14-.055-.426-.055-.646q0-3.917,0-7.834v-.77H74.359v.731c0,2.722,0,5.444,0,8.166,0,.556-.184.962-.771,1.059-.571.095-.979-.338-.981-1.041-.007-2.412,0-4.824,0-7.236V51.632H69.845v.744q0,3.851,0,7.7c0,.155,0,.31,0,.465-.017.693-.348,1.082-.9,1.063-.53-.018-.843-.391-.845-1.055q-.009-4.083,0-8.166V51.63m22.458-1.861c-.174-.141-.221-.189-.277-.223Q78.252,42.072,66.233,34.592a1,1,0,0,0-1.208.078q-11.82,7.359-23.649,14.7c-.156.1-.3.21-.562.394ZM52.231,69.816h4.7v-18.2h-4.7ZM50.394,51.63H47.709v18.2h2.685Z" transform="translate(-31.981 -26.839)" fill="#fff"/>
    <path id="Path_21457" data-name="Path 21457" d="M0,32.206Q0,19.028,0,5.85A5.609,5.609,0,0,1,4.4.194,6.527,6.527,0,0,1,5.843.041Q15.669.007,25.5,0c1.349,0,2.7,0,4.046.1a5.3,5.3,0,0,1,3.882,2.16c.45.571.437,1.124-.01,1.46s-.93.212-1.364-.342a3.858,3.858,0,0,0-3.216-1.561c-.642,0-1.285.026-1.925-.009a.735.735,0,0,0-.878.571c-.216.671-.505,1.32-.784,1.97A2.874,2.874,0,0,1,22.4,6.222q-4.98,0-9.96,0A2.913,2.913,0,0,1,9.512,4.249c-.266-.655-.541-1.307-.785-1.97A.6.6,0,0,0,8.055,1.8c-.8.033-1.594,0-2.39.016A3.828,3.828,0,0,0,1.8,5.356a7.294,7.294,0,0,0-.031.8q0,26.091,0,52.182a4.345,4.345,0,0,0,.807,2.811A4.047,4.047,0,0,0,6,62.682c6.2-.019,12.395-.008,18.592-.008,1.394,0,2.789.01,4.183,0A3.827,3.827,0,0,0,32.7,59.737c.21-.677.6-.952,1.148-.811.526.136.725.6.557,1.285a5.619,5.619,0,0,1-4.793,4.181,10.581,10.581,0,0,1-1.06.057q-11.255,0-22.51,0A5.635,5.635,0,0,1,.221,60.265a7.647,7.647,0,0,1-.211-1.9Q-.009,45.285,0,32.206M10.452,1.855a14.123,14.123,0,0,0,.875,2.026,1.423,1.423,0,0,0,1.03.567q5.041.064,10.082,0a1.426,1.426,0,0,0,1.033-.563,14.157,14.157,0,0,0,.882-2.031Z" transform="translate(0 0)" fill="#fff"/>
    <path id="Path_21458" data-name="Path 21458" d="M181.684,224.916q-6.241,0-12.481,0c-1.93,0-2.746-.815-2.746-2.741q0-7.5,0-15c0-1.878.843-2.731,2.7-2.731q12.548,0,25.1,0c1.871,0,2.7.843,2.7,2.721q0,7.567,0,15.134a2.292,2.292,0,0,1-2.6,2.615q-6.34.008-12.681,0m-13.439-10.527c0,2.752,0,5.429,0,8.105,0,.55.3.652.766.652q12.713-.009,25.427,0c.588,0,.778-.25.776-.8-.011-2.544,0-5.089-.009-7.633a2.05,2.05,0,0,0-.056-.33Zm.045-1.866H195.1V209.8H168.291Zm26.841-4.566c.249-1.6.152-1.722-1.378-1.722H169.738c-1.605,0-1.635.034-1.465,1.639,0,.018.024.034.06.083Z" transform="translate(-136.933 -168.183)" fill="#00e8cc"/>
    <path id="Path_21459" data-name="Path 21459" d="M55.638,335.153q-3.884,0-7.769,0c-.219,0-.519.049-.641-.069-.257-.251-.578-.6-.576-.9,0-.257.391-.563.673-.747.176-.114.473-.051.716-.051q7.636,0,15.272,0c1.013,0,1.435.257,1.445.872s-.444.9-1.418.9h-7.7" transform="translate(-38.379 -274.239)" fill="#fff"/>
    <path id="Path_21460" data-name="Path 21460" d="M172.292,61.173a3.826,3.826,0,1,1-3.852,3.811,3.839,3.839,0,0,1,3.852-3.811m-.021,5.872a2.025,2.025,0,0,0,2.048-2.055,2.067,2.067,0,0,0-2.056-2.064A2.1,2.1,0,0,0,170.2,65a2.069,2.069,0,0,0,2.074,2.049" transform="translate(-138.566 -50.323)" fill="#00e8cc"/>
    <path id="Path_21461" data-name="Path 21461" d="M183.368,269.889a3.436,3.436,0,0,1,3.385-3.453,3.445,3.445,0,1,1-3.385,3.453m5.085-.027a1.666,1.666,0,0,0-1.694-1.66,1.676,1.676,0,0,0,.035,3.352,1.659,1.659,0,0,0,1.659-1.692" transform="translate(-150.846 -219.181)" fill="#00e8cc"/>
    <path id="Path_21462" data-name="Path 21462" d="M251.958,269.384c1.793,0,3.585-.007,5.378,0,.73,0,1.154.449,1.025,1.056-.119.559-.528.7-1.046.7-2.169-.007-4.338,0-6.507,0-1.417,0-2.833,0-4.249,0-.734,0-1.1-.29-1.106-.85-.012-.585.374-.9,1.127-.906,1.793-.005,3.585,0,5.378,0" transform="translate(-201.92 -221.605)" fill="#00e8cc"/>
    <path id="Path_21463" data-name="Path 21463" d="M251.958,288.525c1.748,0,3.5,0,5.245,0,.794,0,1.162.28,1.174.855.012.6-.386.909-1.195.909q-5.278,0-10.555,0c-.8,0-1.2-.323-1.173-.93.023-.538.369-.828,1.061-.832,1.814-.01,3.629,0,5.444,0" transform="translate(-201.92 -237.351)" fill="#00e8cc"/>
  </g>
</svg>
