<svg id="Group_711" data-name="Group 711" xmlns="http://www.w3.org/2000/svg" xmlns:xlink="http://www.w3.org/1999/xlink" width="67.042" height="65.274" viewBox="0 0 67.042 65.274">
  <defs>
    <clipPath id="clip-path">
      <rect id="Rectangle_475" data-name="Rectangle 475" width="67.042" height="65.274" fill="#fff"/>
    </clipPath>
  </defs>
  <g id="Group_711-2" data-name="Group 711" clip-path="url(#clip-path)">
    <path id="Path_21419" data-name="Path 21419" d="M0,63.934a1.519,1.519,0,0,1,1.4-.64c3.71.018,7.421.009,11.131.009h.82V16.256c-.257,0-.511.013-.764,0a2.029,2.029,0,0,1-1.974-2.042q-.02-6.089,0-12.178A1.981,1.981,0,0,1,12.593.016c.719-.022,1.441-.018,2.16,0A.979.979,0,0,1,15.81.945a1.007,1.007,0,0,1-1.053,1.018c-.7.025-1.393.006-2.137.006V14.252H54.426V1.972h-.816q-16.8,0-33.59,0a3.4,3.4,0,0,1-.9-.08.868.868,0,0,1-.66-1,.888.888,0,0,1,.828-.865,4.547,4.547,0,0,1,.654-.018H53.986c1.726,0,2.458.737,2.458,2.469,0,3.623-.053,7.246.023,10.868.038,1.828-.521,2.98-2.813,2.943v.817q0,18.594,0,37.187a4.2,4.2,0,0,1-.051.845.957.957,0,0,1-1.892-.095,7.719,7.719,0,0,1-.018-.785q0-18.528,0-37.056v-.892H15.417V63.249H51.69c0-.852,0-1.715,0-2.578,0-.393-.012-.787.012-1.178a.963.963,0,0,1,1.922-.05c.053.629.026,1.264.029,1.9s0,1.255,0,1.963h.828q5.566,0,11.131,0a2.678,2.678,0,0,1,.712.062.96.96,0,0,1-.142,1.882,5.506,5.506,0,0,1-.654.016q-32.019,0-64.038.008c-.627,0-1.176-.061-1.492-.686Z" transform="translate(0 -0.001)" fill="#fff"/>
    <path id="Path_21420" data-name="Path 21420" d="M124.472,242.376q-6.121,0-12.241,0c-1.426,0-1.938-.507-1.938-1.926q0-8.345,0-16.691c0-1.443.526-1.96,1.981-1.96h24.548c1.406,0,1.937.527,1.938,1.936q0,8.345,0,16.69c0,1.451-.51,1.95-1.98,1.95q-6.153,0-12.307,0m9.369-18.594c0,1,0,1.935,0,2.868-.008,1.179-.545,1.757-1.7,1.759q-7.625.015-15.251,0a1.505,1.505,0,0,1-1.677-1.715c-.008-.954,0-1.907,0-2.884h-2.9v16.549h24.426V223.782Zm-2,.022H117.206v2.607h14.635Z" transform="translate(-90.999 -183.002)" fill="#00e8cc"/>
    <path id="Path_21421" data-name="Path 21421" d="M124.523,131.075q-6.087,0-12.173,0c-1.572,0-2.056-.493-2.056-2.085q0-5.791,0-11.583c0-1.5.5-2,2-2H136.77c1.495,0,1.99.5,1.991,2.006q0,5.824,0,11.648c0,1.5-.507,2.01-2,2.011q-6.119,0-12.239,0m12.232-13.66H112.3v7.569h24.457Zm.042,11.653a10.522,10.522,0,0,1,.009-1.263c.082-.66-.147-.838-.82-.836-7.639.026-15.277.016-22.916.016a1.16,1.16,0,0,0-.453.014c-.142.066-.333.22-.341.346-.037.558-.016,1.121-.016,1.722Z" transform="translate(-91 -95.222)" fill="#00e8cc"/>
    <path id="Path_21422" data-name="Path 21422" d="M214.716,24.618q-.423,1.457-.847,2.914c-.055.188-.1.379-.158.566a1.107,1.107,0,0,1-1.146.882,1.09,1.09,0,0,1-1.09-.866q-.448-1.5-.9-3c-.055-.184-.123-.365-.238-.7-.228,1.245-.419,2.336-.629,3.424-.158.819-.582,1.2-1.186,1.087s-.88-.618-.735-1.423q.594-3.311,1.194-6.621c.146-.8.514-1.2,1.125-1.229.593-.029,1.011.346,1.242,1.121.348,1.168.691,2.337,1.04,3.5.042.141.1.277.2.55.433-1.5.817-2.869,1.226-4.231.244-.812.957-1.194,1.593-.813a1.457,1.457,0,0,1,.64.833c.491,2.366.935,4.742,1.376,7.118a.969.969,0,1,1-1.9.377c-.247-1.148-.458-2.3-.684-3.457l-.133-.034" transform="translate(-171.413 -16.199)" fill="#00e8cc"/>
    <path id="Path_21423" data-name="Path 21423" d="M119.4,28.064c.069-.206.13-.414.207-.616.847-2.237,1.7-4.471,2.542-6.71.217-.578.547-1.013,1.216-.993.631.019.937.443,1.144,1,.842,2.262,1.706,4.515,2.556,6.774.269.713.089,1.273-.459,1.489-.593.234-1.146-.036-1.364-.816-.208-.744-.592-1.038-1.344-.909a2.308,2.308,0,0,1-.717,0c-.962-.142-1.662.039-1.885,1.166a.8.8,0,0,1-1.139.565c-.343-.145-.584-.53-.87-.808l.114-.142m4.719-2.776-.8-2.087-.783,2.087Z" transform="translate(-98.421 -16.291)" fill="#00e8cc"/>
    <path id="Path_21424" data-name="Path 21424" d="M172.859,21.6c0,1.492,0,2.906,0,4.32,0,.676.014,1.353-.006,2.029a.97.97,0,0,1-.954,1.034.96.96,0,0,1-1-1.05c-.013-1.854-.005-3.709-.006-5.564V21.6c-.387,0-.709.013-1.029,0a.973.973,0,1,1-.029-1.946q2.061-.04,4.123,0a.955.955,0,0,1,.94.984.97.97,0,0,1-.965.957c-.325.02-.652,0-1.077,0" transform="translate(-139.334 -16.201)" fill="#00e8cc"/>
    <path id="Path_21425" data-name="Path 21425" d="M144.381,284.966c0,.609.021,1.22,0,1.828a1.23,1.23,0,0,1-1.353,1.338q-1.632.033-3.265,0a1.224,1.224,0,0,1-1.366-1.378q-.017-1.861,0-3.722a1.235,1.235,0,0,1,1.337-1.351q1.632-.032,3.265,0a1.28,1.28,0,0,1,1.386,1.391c0,.043,0,.087,0,.13v1.763Zm-2.007-1.283h-1.98v2.46h1.98Z" transform="translate(-114.178 -232.399)" fill="#00e8cc"/>
    <path id="Path_21426" data-name="Path 21426" d="M223.558,296.242c0,.391.02.784,0,1.174a.971.971,0,0,1-1.941.007c-.032-.8-.032-1.609,0-2.413a.95.95,0,0,1,.969-.945.964.964,0,0,1,.977,1c.018.391,0,.783,0,1.174h0" transform="translate(-182.829 -242.629)" fill="#00e8cc"/>
    <path id="Path_21427" data-name="Path 21427" d="M243.463,296.215c0,.434.033.871-.008,1.3a.913.913,0,0,1-1.006.889.884.884,0,0,1-.912-.914c-.027-.824-.03-1.651,0-2.474a.867.867,0,0,1,.934-.886.88.88,0,0,1,.972.849,11.365,11.365,0,0,1,.009,1.235Z" transform="translate(-199.271 -242.682)" fill="#00e8cc"/>
  </g>
</svg>
