<svg id="Group_714" data-name="Group 714" xmlns="http://www.w3.org/2000/svg" xmlns:xlink="http://www.w3.org/1999/xlink" width="64.783" height="64.933" viewBox="0 0 64.783 64.933">
  <defs>
    <clipPath id="clip-path">
      <rect id="Rectangle_478" data-name="Rectangle 478" width="64.783" height="64.933" fill="none"/>
    </clipPath>
  </defs>
  <g id="Group_714-2" data-name="Group 714" clip-path="url(#clip-path)">
    <path id="Path_21440" data-name="Path 21440" d="M41.251,0a7.982,7.982,0,0,1,4.534,2.913c1.441,1.629,2.968,3.184,4.487,4.743a6.377,6.377,0,0,1,1.881,4.684c-.017,2.7,0,5.41,0,8.115v.753c1.238,0,2.418-.05,3.591.014a15.681,15.681,0,0,1,3.5.406,7.577,7.577,0,0,1,5.478,7.1c.072,9.551.1,19.1,0,28.655a7.772,7.772,0,0,1-7.857,7.54q-9.1.032-18.2,0a7.934,7.934,0,0,1-7.946-7.939c0-.206,0-.412,0-.654H29.566l-.99,2.26a8.439,8.439,0,0,1,.72,1.52,3.413,3.413,0,0,1-3.384,4.3c-5.263.016-10.526.03-15.789-.006a15.509,15.509,0,0,1-3.886-.362A8.5,8.5,0,0,1,.025,54.946a8.566,8.566,0,0,1,7.382-7.784c.1-.015.2-.05.334-.084a3.624,3.624,0,0,1,.922-3.059,3.439,3.439,0,0,1-.407-4.29c.937-1.518,2.461-1.695,4.138-1.565v-.951q0-15.406,0-30.812A6.017,6.017,0,0,1,16.157.43C16.6.254,17.074.142,17.534,0ZM28.473,43.987c1.273,1.879,1.271,2.941.006,4.879,1.274,1.747,1.273,2.889-.005,4.851.56.987,1.447.379,2.241.547v-.85q0-11.979.009-23.958a9.316,9.316,0,0,1,.2-2.072,7.949,7.949,0,0,1,7.888-6.168c3.508-.025,7.016-.005,10.523-.007.244,0,.488-.02.68-.028V11.043c-2.422,0-4.744,0-7.066,0-1.045,0-1.353-.308-1.355-1.36q-.006-3.455,0-6.909V2.034h-.76q-11.031,0-22.061,0a3.954,3.954,0,0,0-4.329,4.328q0,15.529,0,31.058c0,.225.02.449.034.732h.74c3.592,0,7.185-.009,10.777,0a3.363,3.363,0,0,1,3.362,2.859,3.475,3.475,0,0,1-.883,2.97m34.376-.937q0-6.718,0-13.436a8.245,8.245,0,0,0-.108-1.576,6.009,6.009,0,0,0-6.2-4.9q-8.779-.012-17.559,0A6.032,6.032,0,0,0,32.625,29.5q0,13.563,0,27.125a6.053,6.053,0,0,0,6.407,6.388c5.789,0,11.58-.057,17.368.022a6.241,6.241,0,0,0,6.473-6.491c-.1-4.5-.023-9-.023-13.5M12.15,62.505a6.776,6.776,0,1,0-6.776-6.769,6.765,6.765,0,0,0,6.776,6.769m6.463-22.317c-2.449,0-4.9-.005-7.348,0a1.376,1.376,0,0,0-1.5,1.228c-.1.928.549,1.565,1.617,1.566q7.158.005,14.315,0c1.031,0,1.68-.545,1.684-1.4s-.638-1.4-1.671-1.4q-3.547-.005-7.094,0m-.026,4.833c-2.429,0-4.859-.006-7.289,0a1.415,1.415,0,0,0-1.551,1.4c0,.411.091.666.608.649a11.311,11.311,0,0,1,5.283.718.615.615,0,0,0,.25.031c3.38,0,6.761.008,10.141-.01a1.345,1.345,0,0,0,1.341-1.269,1.423,1.423,0,0,0-1.558-1.516c-2.408-.009-4.817,0-7.226,0m-.624,17.351c2.63,0,5.267.009,7.9,0a1.42,1.42,0,0,0,1.513-1.378,1.4,1.4,0,0,0-1.523-1.416c-1.835-.015-3.67-.01-5.506,0a.694.694,0,0,0-.495.174c-.639.849-1.248,1.721-1.892,2.623M18.7,49.858c.514.892.969,1.717,1.467,2.517a.738.738,0,0,0,.537.279q2.592.03,5.185.006a1.39,1.39,0,0,0,1.489-1.385,1.436,1.436,0,0,0-1.484-1.41c-.589-.024-1.18-.006-1.77-.006H18.7m2.019,7.653c1.81,0,3.579.029,5.347-.013a1.346,1.346,0,0,0,1.308-1.369,1.375,1.375,0,0,0-1.351-1.394c-.757-.047-1.518-.023-2.278-.026-.966,0-1.932,0-2.894,0-.046.957-.088,1.835-.134,2.8M48.7,8.974,43.676,3.665V8.974ZM3.83,58.411c-.292-1.718-.393-1.8-1.752-1.467.007,1.412.271,1.638,1.752,1.467M1.982,54.861c1.456.261,1.741.025,1.682-1.393-1.52-.115-1.45-.307-1.682,1.393m3.926-5.234-.1-.138-2.378,1.8.147.3c.383-.115.87-.121,1.126-.368a11.786,11.786,0,0,0,1.2-1.591M3.722,60.5l2.095,1.445.094-.137a6.6,6.6,0,0,1-.706-.88c-.308-.547-.726-.677-1.483-.429" transform="translate(0 -0.001)" fill="#fff"/>
    <path id="Path_21441" data-name="Path 21441" d="M125.911,126.824a18.094,18.094,0,0,1,1.792.589.838.838,0,0,1,.52,1.227c-.249.517-.628.622-1.266.314a3.585,3.585,0,0,0-2.522-.289,1.258,1.258,0,0,0-1.043,1.056,1.351,1.351,0,0,0,.642,1.527,14.13,14.13,0,0,0,1.321.6c.426.184.87.33,1.282.54a3.8,3.8,0,0,1,1.341,5.539,3.916,3.916,0,0,1-1.424,1.1c-.433.211-.7.338-.71.9a1.191,1.191,0,0,1-.6.848,1.1,1.1,0,0,1-.9-.208.956.956,0,0,1-.276-.729c.02-.451-.163-.582-.567-.724a7.9,7.9,0,0,1-1.606-.846,1.44,1.44,0,0,1-.491-.643.906.906,0,0,1,.362-1.167c.4-.278.723-.08.992.233a2.625,2.625,0,0,0,2.5.914c.881-.119,1.4-.5,1.527-1.194a1.955,1.955,0,0,0-.7-2.207,10.256,10.256,0,0,0-1.415-.694c-.4-.183-.823-.328-1.223-.516a2.967,2.967,0,0,1-1.837-3.1,2.921,2.921,0,0,1,2.059-2.759c.17-.063.294-.332.372-.532a3.7,3.7,0,0,0,.05-.562.845.845,0,0,1,.9-.734.83.83,0,0,1,.85.714,7.186,7.186,0,0,1,.074.805" transform="translate(-100.773 -104.082)" fill="#00e8cc"/>
    <path id="Path_21442" data-name="Path 21442" d="M166.01,105.135q3.834,0,7.669,0a3.607,3.607,0,0,1,.693.042.932.932,0,0,1,.019,1.829,3.485,3.485,0,0,1-.693.044q-7.669,0-15.338,0c-.063,0-.127,0-.19,0-.793-.013-1.244-.355-1.251-.948s.447-.965,1.231-.967c2.345-.007,4.69,0,7.035,0h.824" transform="translate(-130.342 -87.327)" fill="#00e8cc"/>
    <path id="Path_21443" data-name="Path 21443" d="M125.858,79.03h-8.041a3.534,3.534,0,0,1-.569-.016.945.945,0,0,1-.06-1.861,2.686,2.686,0,0,1,.63-.028H133.9c.148,0,.3-.008.443,0a.948.948,0,1,1,0,1.9c-.168.013-.337.006-.506.006h-7.978" transform="translate(-96.712 -64.057)" fill="#00e8cc"/>
    <path id="Path_21444" data-name="Path 21444" d="M118.772,107.024c-.464,0-.93.019-1.393-.006a.969.969,0,0,1-1-.935.949.949,0,0,1,.974-.957q1.487-.044,2.976,0a.912.912,0,0,1,.985.933c.007.568-.364.935-1.022.964-.506.022-1.013,0-1.52,0" transform="translate(-96.667 -87.302)" fill="#00e8cc"/>
    <path id="Path_21445" data-name="Path 21445" d="M241.282,77.12c.38,0,.761-.015,1.141,0a.954.954,0,0,1,.988.941.934.934,0,0,1-.968.953c-.781.022-1.563.02-2.344,0a.948.948,0,1,1-.019-1.894c.4-.021.8,0,1.2,0" transform="translate(-198.608 -64.053)" fill="#00e8cc"/>
    <path id="Path_21446" data-name="Path 21446" d="M221.946,149.385q4.312,0,8.624,0a3.244,3.244,0,0,1,3.583,3.569c0,.972.011,1.944,0,2.916a3.235,3.235,0,0,1-3.471,3.435q-4.914.007-9.828,0a2.093,2.093,0,0,1-.683-.086.779.779,0,0,1-.578-.984,1.891,1.891,0,0,1,.759-.8c.162-.11.452-.039.684-.039q4.756,0,9.512,0c1.239,0,1.681-.441,1.688-1.677.005-.972.013-1.944,0-2.916-.016-1.023-.466-1.5-1.467-1.5q-8.846-.012-17.691,0c-1,0-1.449.485-1.455,1.5q-.01,1.553,0,3.106a1.323,1.323,0,0,0,1.493,1.481c1.015.013,2.029,0,3.044.006.741.006,1.175.366,1.174.947s-.441.953-1.175.959c-1.078.008-2.156.021-3.234,0a3.182,3.182,0,0,1-3.21-3.229c-.017-1.1-.009-2.2,0-3.3a3.164,3.164,0,0,1,3.363-3.386c2.959-.021,5.918-.005,8.877-.006" transform="translate(-174.182 -124.08)" fill="#00e8cc"/>
    <path id="Path_21447" data-name="Path 21447" d="M318.951,275.856c0,1.605.008,3.21,0,4.816a2.751,2.751,0,0,1-2.963,2.965c-.507,0-1.014.011-1.521,0a2.739,2.739,0,0,1-2.773-2.78q-.024-5.037,0-10.075a2.426,2.426,0,0,1,2.276-2.509,16.42,16.42,0,0,1,2.72,0,2.386,2.386,0,0,1,2.252,2.452c.028,1.71.007,3.422.007,5.132Zm-1.915-.036c0-1.624-.007-3.249,0-4.874,0-.52-.2-.8-.742-.79-.675.006-1.35,0-2.026.005a.606.606,0,0,0-.673.667q-.007,5,0,10a.828.828,0,0,0,.871.889c.484.027.97.013,1.456.008.833-.01,1.1-.272,1.106-1.1.006-1.6,0-3.207,0-4.81" transform="translate(-258.891 -222.786)" fill="#00e8cc"/>
    <path id="Path_21448" data-name="Path 21448" d="M267.61,271.843c0,.549.019,1.1,0,1.648a2,2,0,0,1-1.981,1.991c-1.1.036-2.2.033-3.3,0a1.959,1.959,0,0,1-1.981-1.979c-.038-1.1-.036-2.2,0-3.3a1.927,1.927,0,0,1,1.905-1.978,32.555,32.555,0,0,1,3.421.005,1.962,1.962,0,0,1,1.937,2.086c.013.507,0,1.014,0,1.521m-5.323,1.737c1.068,0,2.058.014,3.047-.017a.523.523,0,0,0,.35-.37c.031-.886.029-1.775,0-2.662,0-.132-.181-.37-.282-.372-1.027-.028-2.056-.017-3.117-.017Z" transform="translate(-216.228 -222.765)" fill="#00e8cc"/>
    <path id="Path_21449" data-name="Path 21449" d="M263.948,323.48c-.527,0-1.055.013-1.581,0a1.977,1.977,0,0,1-2.033-1.986c-.038-1.095-.041-2.193,0-3.288a1.936,1.936,0,0,1,2.018-1.991c1.074-.038,2.152-.039,3.225,0a1.984,1.984,0,0,1,2.018,2.068q.029,1.549,0,3.1a2.031,2.031,0,0,1-2.128,2.1c-.506.009-1.012,0-1.518,0m-1.706-5.317c0,1.056-.014,2.046.017,3.034a.523.523,0,0,0,.366.357q1.329.048,2.66,0c.138,0,.38-.216.384-.337.031-1.006.018-2.014.018-3.054Z" transform="translate(-216.215 -262.631)" fill="#00e8cc"/>
    <path id="Path_21450" data-name="Path 21450" d="M216.955,271.929c0,.506.008,1.012,0,1.518A1.985,1.985,0,0,1,215,275.509c-1.116.039-2.236.039-3.352,0a1.961,1.961,0,0,1-1.94-2.006c-.018-1.075-.016-2.151,0-3.226a1.9,1.9,0,0,1,1.792-2,30.437,30.437,0,0,1,3.664,0,1.911,1.911,0,0,1,1.791,2.006c.011.548,0,1.1,0,1.645M215,270.2h-3.343v3.376H215Z" transform="translate(-174.177 -222.793)" fill="#00e8cc"/>
    <path id="Path_21451" data-name="Path 21451" d="M216.943,319.875c0,.527.01,1.055,0,1.581a1.979,1.979,0,0,1-1.925,2.027c-1.137.042-2.278.042-3.415,0a1.953,1.953,0,0,1-1.906-1.974q-.031-1.644,0-3.289a1.9,1.9,0,0,1,1.886-1.978c1.157-.055,2.32-.055,3.477,0a1.922,1.922,0,0,1,1.882,1.987c.015.548,0,1.1,0,1.644m-1.911-1.68h-3.4v3.388c1.045,0,2.052.014,3.059-.019.117,0,.318-.262.322-.407.029-.967.015-1.936.015-2.962" transform="translate(-174.165 -262.646)" fill="#00e8cc"/>
    <path id="Path_21452" data-name="Path 21452" d="M263.963,225.089c-.549,0-1.1.019-1.648,0a1.908,1.908,0,0,1-1.947-1.858c-.051-1.181-.051-2.367,0-3.548a1.922,1.922,0,0,1,1.909-1.84c1.119-.032,2.24-.029,3.36,0a1.975,1.975,0,0,1,1.968,1.931c.041,1.118.039,2.24,0,3.359a1.961,1.961,0,0,1-2,1.958c-.548.024-1.1,0-1.648,0m1.708-5.309h-3.362v3.347h3.362Z" transform="translate(-216.237 -180.924)" fill="#00e8cc"/>
    <path id="Path_21453" data-name="Path 21453" d="M318.9,221.447c0,.571.021,1.142,0,1.711a1.917,1.917,0,0,1-1.889,1.916c-1.161.037-2.325.038-3.486,0a1.93,1.93,0,0,1-1.867-1.881c-.036-1.14-.034-2.283,0-3.423a1.976,1.976,0,0,1,1.962-1.934c1.12-.027,2.241-.03,3.36,0a1.956,1.956,0,0,1,1.92,1.9c.028.569.005,1.141.006,1.711m-5.313,1.69h3.358v-3.37h-3.358Z" transform="translate(-258.85 -180.923)" fill="#00e8cc"/>
    <path id="Path_21454" data-name="Path 21454" d="M216.943,221.453c0,.571.017,1.142,0,1.712a1.922,1.922,0,0,1-1.847,1.9c-1.182.043-2.368.042-3.55,0a1.9,1.9,0,0,1-1.842-1.893q-.039-1.711,0-3.423a1.95,1.95,0,0,1,1.9-1.915q1.711-.052,3.424,0a1.973,1.973,0,0,1,1.916,1.976c.016.549,0,1.1,0,1.648M215,219.769h-3.353v3.346H215Z" transform="translate(-174.166 -180.913)" fill="#00e8cc"/>
    <path id="Path_21455" data-name="Path 21455" d="M58.73,297.966c.364.283.778.443.865.709a1.012,1.012,0,0,0,.79.68,1.462,1.462,0,0,1,.438.246.861.861,0,0,1,.286,1.173.9.9,0,0,1-1.18.443,5.69,5.69,0,0,0-1.221-.223c-.14-.01-.4.17-.415.284a.63.63,0,0,0,.235.511,9.025,9.025,0,0,0,1.147.523,2.695,2.695,0,0,1,.347,4.862.758.758,0,0,0-.295.418.965.965,0,0,1-.922.739,1,1,0,0,1-.964-.688,1.682,1.682,0,0,0-.463-.5,6.654,6.654,0,0,1-1.042-.878.887.887,0,0,1,.224-1.292.849.849,0,0,1,1.194.108,1.635,1.635,0,0,0,.867.438,1.022,1.022,0,0,0,.806-.4.673.673,0,0,0-.363-.951c-.477-.223-.978-.4-1.446-.635a2.256,2.256,0,0,1-1.071-3.056,2.577,2.577,0,0,1,.7-.867c.288-.237.567-.388.664-.829.064-.288.481-.5.816-.815" transform="translate(-46.635 -247.499)" fill="#00e8cc"/>
  </g>
</svg>
