<svg id="Group_716" data-name="Group 716" xmlns="http://www.w3.org/2000/svg" xmlns:xlink="http://www.w3.org/1999/xlink" width="62.109" height="63.083" viewBox="0 0 62.109 63.083">
  <defs>
    <clipPath id="clip-path">
      <rect id="Rectangle_480" data-name="Rectangle 480" width="62.109" height="63.083" fill="none"/>
    </clipPath>
  </defs>
  <g id="Group_716-2" data-name="Group 716" clip-path="url(#clip-path)">
    <path id="Path_21464" data-name="Path 21464" d="M25.63,63.082a8.481,8.481,0,0,1-3.423-1.43,7.058,7.058,0,0,1-2.878-5.6c-.013-.431-.013-.862,0-1.293a2.4,2.4,0,0,1,2.509-2.4A2.5,2.5,0,0,1,24.508,54.7c.024.347,0,.7.013,1.047a1.964,1.964,0,0,0,3.925.1c.017-.2.008-.41.008-.616q0-13.917.015-27.834a1.467,1.467,0,0,0-.588-1.256,6.383,6.383,0,0,0-6.9-1.119,6.4,6.4,0,0,0-4.059,5.7c-.012.123-.009.246-.021.369a.919.919,0,0,1-.944.928.932.932,0,0,1-.909-.913,13.816,13.816,0,0,0-.253-1.759A6.586,6.586,0,0,0,1.857,30.779a3.433,3.433,0,0,1-.019.369.959.959,0,0,1-.945.88A.888.888,0,0,1,0,31.054a52.061,52.061,0,0,1,.567-5.93A30.865,30.865,0,0,1,23.924.862,30.55,30.55,0,0,1,46.293,4.023a1.818,1.818,0,0,1,.577.444.827.827,0,0,1-.062,1.127.9.9,0,0,1-1.174.187c-1.083-.537-2.152-1.1-3.255-1.594a27.44,27.44,0,0,0-6.6-1.914c-.172-.029-.35-.025-.71-.048a25.7,25.7,0,0,1,8.676,10.462,38.229,38.229,0,0,1,3.166,13.251,8.55,8.55,0,0,1,12.713-.865,27.805,27.805,0,0,0-2.038-6.206A29.008,29.008,0,0,0,49.552,8.5c-.111-.091-.225-.179-.334-.273a.979.979,0,0,1-.271-1.4c.357-.457.9-.478,1.464-.031a30.915,30.915,0,0,1,11.7,24.015c0,.062,0,.123,0,.185a.948.948,0,0,1-.9,1.033c-.52.007-.865-.4-.961-1a11.863,11.863,0,0,0-.491-2.391,6.537,6.537,0,0,0-7.123-4.059,6.621,6.621,0,0,0-5.566,6.23c-.032.787-.349,1.209-.921,1.224s-.9-.4-.956-1.183a6.623,6.623,0,0,0-10.97-4.7,1.471,1.471,0,0,0-.586,1.257c.02,9.36-.039,18.72.039,28.08A7.29,7.29,0,0,1,27.514,63a.506.506,0,0,0-.159.085ZM26.937,2.233C14.76,3.7,4.6,13.765,2.555,25a8.461,8.461,0,0,1,6.494-2.332,8.6,8.6,0,0,1,6.125,3.257c.086-.838.112-1.559.241-2.261.391-2.135.8-4.266,1.25-6.389a.905.905,0,0,1,1.421-.632,1.013,1.013,0,0,1,.351,1.2c-.389,1.864-.774,3.729-1.125,5.6-.12.638-.134,1.3-.213,2.107a8.56,8.56,0,0,1,12.952.12V2.556c-.253.139-.433.229-.605.333a23.611,23.611,0,0,0-9.391,10.544c-.309.667-.789.9-1.305.669-.555-.246-.7-.771-.379-1.46a25.43,25.43,0,0,1,6.353-8.6c.69-.6,1.418-1.163,2.214-1.812m18,23.144c-.443-5.8-1.854-11.292-5.308-16.1a22.935,22.935,0,0,0-7.575-6.728V25.667a8.648,8.648,0,0,1,12.883-.29M30.305,52.822c0,1.063.028,2.068-.006,3.07a3.819,3.819,0,0,1-7.632-.042,10.241,10.241,0,0,0-.028-1.044.685.685,0,0,0-.77-.637.644.644,0,0,0-.682.708c0,.41-.008.82,0,1.23a5.314,5.314,0,0,0,4.838,5.1,5.221,5.221,0,0,0,5.585-4.084,33.138,33.138,0,0,0,.235-4.3Zm1.438-1.931V31.823a2.941,2.941,0,0,1-.733.189,2.4,2.4,0,0,1-.66-.2V50.892Z" transform="translate(0.001 0)" fill="#fff"/>
    <path id="Path_21465" data-name="Path 21465" d="M21.107,219.865a9.858,9.858,0,0,1-9.673-9.306,9.643,9.643,0,1,1,19.177.912.935.935,0,0,1-1.027.909.9.9,0,0,1-.811-1.094,8.083,8.083,0,0,0-.5-4.1,7.777,7.777,0,1,0-8.493,10.583,7.584,7.584,0,0,0,6.853-2.23c.117-.115.225-.239.336-.36.521-.569,1.045-.661,1.484-.261s.406.918-.109,1.512a8.9,8.9,0,0,1-4.132,2.779c-1.009.31-2.07.447-3.108.661" transform="translate(-9.536 -167.474)" fill="#00e8cc"/>
    <path id="Path_21466" data-name="Path 21466" d="M251.458,216.035c0-1.519-.006-3.038,0-4.556a3.707,3.707,0,0,1,3.891-3.915q3.632-.013,7.265,0a3.71,3.71,0,0,1,3.888,3.862q.013,4.617,0,9.235a3.707,3.707,0,0,1-3.836,3.854q-3.694.029-7.388,0a3.7,3.7,0,0,1-3.82-3.863c-.01-1.539,0-3.078,0-4.618m1.858-.048c0,1.518,0,3.036,0,4.553a1.878,1.878,0,0,0,2.072,2.111q3.6.013,7.2,0a1.884,1.884,0,0,0,2.061-2.068q.008-4.553,0-9.107a1.875,1.875,0,0,0-2.019-2.048q-3.661-.016-7.322,0a1.852,1.852,0,0,0-1.991,2.006c-.007,1.518,0,3.036,0,4.553" transform="translate(-210.082 -173.407)" fill="#00e8cc"/>
    <path id="Path_21467" data-name="Path 21467" d="M54.812,226.357c-.284-.2-.613-.328-.91-.508-.127-.077-.314-.194-.321-.3-.033-.535-.015-1.073-.015-1.721.312.183.5.293.693.408a.936.936,0,1,0,1.011-1.552c-.535-.324-1.114-.575-1.718-.88a5.735,5.735,0,0,0-.006-.757.857.857,0,0,0-.9-.828.868.868,0,0,0-.925.807c-.035.2.022.418-.026.612a.626.626,0,0,1-.267.4,2.628,2.628,0,0,0-1.788,2.426,2.507,2.507,0,0,0,1.736,2.376c.129.064.308.2.313.314.028.7.014,1.4.014,2.245-.364-.27-.6-.426-.816-.608-.517-.437-1.041-.48-1.42-.1a.935.935,0,0,0,.165,1.447c.622.481,1.326.857,2.053,1.315.092,1.2.3,1.572.946,1.575s.867-.38.962-1.626a10.819,10.819,0,0,0,1.137-.558,2.584,2.584,0,0,0,.084-4.485m-2.96-1.323c-.816-.584-.8-1.075,0-1.505Zm1.74,4.306v-1.506c.8.431.816.921,0,1.506" transform="translate(-41.1 -183.982)" fill="#00e8cc"/>
    <path id="Path_21468" data-name="Path 21468" d="M278.992,259.55c.819,0,1.638-.012,2.456,0,.644.012,1.026.349,1.049.879a.937.937,0,0,1-1.025.977q-2.517.029-5.035,0a.923.923,0,0,1-1.041-.954c.009-.571.377-.893,1.079-.9.839-.013,1.678,0,2.518,0" transform="translate(-230.084 -216.842)" fill="#00e8cc"/>
    <path id="Path_21469" data-name="Path 21469" d="M278.186,236.577c.554,0,1.109-.013,1.662,0a.921.921,0,1,1,.048,1.841q-1.785.039-3.571,0a.894.894,0,0,1-.935-.933.885.885,0,0,1,.948-.909c.615-.018,1.231,0,1.847,0" transform="translate(-230.079 -197.648)" fill="#00e8cc"/>
  </g>
</svg>
