<svg id="Group_709" data-name="Group 709" xmlns="http://www.w3.org/2000/svg" xmlns:xlink="http://www.w3.org/1999/xlink" width="58.239" height="63.815" viewBox="0 0 58.239 63.815">
  <defs>
    <clipPath id="clip-path">
      <rect id="Rectangle_473" data-name="Rectangle 473" width="58.239" height="63.815" fill="#fff"/>
    </clipPath>
  </defs>
  <g id="Group_709-2" data-name="Group 709" clip-path="url(#clip-path)">
    <path id="Path_21401" data-name="Path 21401" d="M33.493,0A14.288,14.288,0,0,1,35.87,1.005a5.742,5.742,0,0,1,2.672,5.12q0,1.527,0,3.054c0,.223,0,.446,0,.738h1.876c1.7,0,3.407-.007,5.111,0,.722,0,1.084.327,1.079.919a.817.817,0,0,1-.7.89,4.8,4.8,0,0,1-.868.054q-16.329,0-32.659.016a2.531,2.531,0,0,0-1.4.344A1.627,1.627,0,0,0,10.4,13.3c-.037,5.047-.024,10.095-.021,15.142a1.41,1.41,0,0,0,.066.256h.712c2.992,0,5.984-.01,8.975,0a4.1,4.1,0,0,1,4.294,3.16,4.049,4.049,0,0,1-3.792,5.148c-3.134.091-6.273.032-9.41.039h-.881a6.222,6.222,0,0,0,.175,1.792,2.413,2.413,0,0,0,1.071.914,1.854,1.854,0,0,0,.858.073q20.91,0,41.821,0a5.306,5.306,0,0,0,.869-.055,1.415,1.415,0,0,0,1.184-1.2,4.79,4.79,0,0,0,.043-.745q0-12.027,0-24.054c0-.145,0-.291-.006-.436a1.471,1.471,0,0,0-1.59-1.545c-1.371-.021-2.742-.005-4.113-.008a4.575,4.575,0,0,1-.622-.026.862.862,0,0,1-.849-.956.818.818,0,0,1,.867-.868c1.765-.01,3.534-.054,5.295.043a3.208,3.208,0,0,1,2.835,2.8,6.932,6.932,0,0,1,.052.87q0,12.151,0,24.3a3.38,3.38,0,0,1-2.472,3.591,5.885,5.885,0,0,1-1.48.147q-7.417.015-14.834.006h-.908v.828q0,7.509,0,15.018A5.883,5.883,0,0,1,34.5,63.483a6.647,6.647,0,0,1-2.015.315q-13.213.031-26.427.01A5.883,5.883,0,0,1,.041,58.079c-.017-.29-.018-.581-.018-.872q0-20.408,0-40.816a6.408,6.408,0,0,1,.03-.808A.822.822,0,0,1,.936,14.8a.835.835,0,0,1,.929.805,6.707,6.707,0,0,1,.027.808q0,20.533-.006,41.065a4.235,4.235,0,0,0,1.637,3.651,3.862,3.862,0,0,0,2.374.812q13.369.006,26.738,0a4,4,0,0,0,4.008-3.744c.022-.269.025-.54.026-.809q0-7.415,0-14.831v-.8H35.3v.694q0,3.8,0,7.6a6.056,6.056,0,0,1-.02.622.857.857,0,0,1-.9.847.872.872,0,0,1-.935-.876,5.7,5.7,0,0,1-.017-.622q0-3.739,0-7.478V41.7H32.6q-10.066,0-20.132-.007a5.371,5.371,0,0,1-1.6-.182,3.2,3.2,0,0,1-2.339-2.851,6.578,6.578,0,0,1-.034-.809q0-12.058,0-24.116a5.311,5.311,0,0,1,.138-1.356,3.34,3.34,0,0,1,3.472-2.458q10.222-.005,20.443,0H33.4c0-1.418.018-2.764-.01-4.108a.7.7,0,0,0-.751-.688q-2.275-.026-4.55.005a.606.606,0,0,0-.4.341c-.18.417-.3.861-.451,1.291a1.638,1.638,0,0,1-1.647,1.189q-6.295.015-12.59,0a1.629,1.629,0,0,1-1.684-1.222c-.191-.524-.366-1.054-.559-1.613-1.613,0-3.211-.01-4.808.006a.764.764,0,0,0-.8.784c-.018.206-.013.415-.013.623q0,25.393,0,50.786c0,1.248.145,1.39,1.4,1.39H32.153c1.083,0,1.273-.189,1.277-1.266,0-.769-.011-1.537.006-2.306.016-.715.346-1.074.935-1.071s.911.36.925,1.083c.017.893.025,1.787,0,2.679a2.661,2.661,0,0,1-2.825,2.748q-13.182.006-26.364,0a2.671,2.671,0,0,1-2.839-2.735c-.006-.166,0-.332,0-.5q0-25.424,0-50.849a5.423,5.423,0,0,1,.109-1.3A2.609,2.609,0,0,1,5.845,3.249c1.682-.026,3.366-.014,5.048,0a1.583,1.583,0,0,1,1.575,1.1c.015.039.035.075.05.114.193.525.241,1.278.615,1.514.436.275,1.158.112,1.756.113,3.345.005,6.69-.005,10.035.012.418,0,.643-.094.747-.523a9.983,9.983,0,0,1,.452-1.29,1.523,1.523,0,0,1,1.488-1.033c1.7-.017,3.408-.03,5.111,0a2.606,2.606,0,0,1,2.557,2.555c.053,1.119.018,2.243.023,3.364,0,.224,0,.448,0,.708h1.266a37.7,37.7,0,0,0-.043-4.867A3.792,3.792,0,0,0,32.7,1.878q-13.431-.022-26.863,0a3.917,3.917,0,0,0-3.9,3.7c-.089,1.678-.034,3.363-.043,5.046a6.7,6.7,0,0,1-.016.685.9.9,0,0,1-.93.892.872.872,0,0,1-.9-.913,54.275,54.275,0,0,1,.1-6.286A5.532,5.532,0,0,1,4.317.238c.251-.081.5-.158.755-.238ZM10.412,35.177h2.17c2.552,0,5.1.008,7.656,0a2.242,2.242,0,0,0,2.406-1.812,2.285,2.285,0,0,0-2.435-2.789c-3.112-.018-6.224-.006-9.336,0-.14,0-.281.028-.46.047Z" transform="translate(0)" fill="#fff"/>
    <path id="Path_21402" data-name="Path 21402" d="M73.8,272.9c1.579,0,3.158-.027,4.736.006a3.5,3.5,0,0,1,3.445,4.647,3.313,3.313,0,0,1-2.778,2.371,5.732,5.732,0,0,1-.993.075q-4.456.008-8.912,0c-2.039-.007-3.365-.937-3.813-2.64a3.435,3.435,0,0,1,3.082-4.41c1.739-.1,3.488-.02,5.232-.02,0-.01,0-.02,0-.03m-.059,1.87c-1.6,0-3.2-.007-4.8,0a1.567,1.567,0,0,0-1.549.951,1.659,1.659,0,0,0,.193,1.763,1.909,1.909,0,0,0,1.674.646q4.486,0,8.971,0a4.15,4.15,0,0,0,.682-.052,1.666,1.666,0,0,0-.378-3.3c-1.6-.022-3.2-.005-4.8,0" transform="translate(-54.478 -227.461)" fill="#fff"/>
    <path id="Path_21403" data-name="Path 21403" d="M90.293,88.752c1.2,0,2.409-.008,3.614,0a1.681,1.681,0,0,1,1.9,1.875q.028,2.273,0,4.547a1.693,1.693,0,0,1-1.868,1.917q-3.675.036-7.352,0a1.692,1.692,0,0,1-1.868-1.916q-.023-2.273,0-4.547a1.68,1.68,0,0,1,1.9-1.876c1.225-.011,2.451,0,3.676,0m3.644,1.928h-7.3v4.549c2.354,0,4.653.006,6.952-.017.116,0,.326-.245.328-.379.024-1.366.015-2.733.015-4.154" transform="translate(-70.606 -73.975)" fill="#fff"/>
    <path id="Path_21404" data-name="Path 21404" d="M247.3,178.649c-.156.18-.332.564-.6.646a1.875,1.875,0,0,1-1.02-.175.562.562,0,0,1-.256-.406c-.13-.993-.754-1.2-1.62-1.068a1.45,1.45,0,0,1-.435,0c-.958-.147-1.654.034-1.882,1.16a.854.854,0,0,1-1.211.532.9.9,0,0,1-.495-1.19c.885-2.369,1.791-4.73,2.693-7.092a.915.915,0,0,1,1-.681,1.507,1.507,0,0,1,1.007.663c.955,2.364,1.83,4.759,2.728,7.146a3.992,3.992,0,0,1,.094.465m-4.615-2.9h1.606l-.8-2.133-.805,2.133" transform="translate(-199.804 -142)" fill="#fff"/>
    <path id="Path_21405" data-name="Path 21405" d="M210.067,176.136c0,.707.008,1.346,0,1.984-.011.774-.315,1.143-.921,1.146s-.939-.373-.942-1.134q-.015-3.393,0-6.786c0-.813.33-1.133,1.148-1.14a17.735,17.735,0,0,1,2.175.06,2.851,2.851,0,0,1,2.61,3.023,2.913,2.913,0,0,1-2.827,2.843c-.388.025-.778,0-1.242,0m.063-4.063v2.205c.756-.044,1.574.225,1.981-.6a1.311,1.311,0,0,0-.046-1.084c-.444-.731-1.218-.491-1.935-.523" transform="translate(-173.536 -141.868)" fill="#fff"/>
    <path id="Path_21406" data-name="Path 21406" d="M284.056,173.016c.494-.758.93-1.438,1.378-2.111.4-.6.933-.763,1.412-.447s.554.844.152,1.471c-.549.855-1.137,1.687-1.651,2.562a2.658,2.658,0,0,0-.335,1.148c-.051.848-.011,1.7-.026,2.551-.013.752-.345,1.143-.939,1.145s-.911-.386-.927-1.144a.356.356,0,0,1,0-.062,6.919,6.919,0,0,0-1.77-5.83,3.468,3.468,0,0,1-.338-.522.938.938,0,0,1,.254-1.356.925.925,0,0,1,1.295.335c.492.715.959,1.447,1.495,2.261" transform="translate(-234.085 -141.932)" fill="#fff"/>
    <path id="Path_21407" data-name="Path 21407" d="M240.447,104.069a7.889,7.889,0,0,1,0,.806.865.865,0,0,1-.892.855.843.843,0,0,1-.94-.8,8.709,8.709,0,0,1,0-1.734.829.829,0,0,1,.943-.785.851.851,0,0,1,.888.85,7.886,7.886,0,0,1,.005.806" transform="translate(-198.853 -85.363)" fill="#fff"/>
    <path id="Path_21408" data-name="Path 21408" d="M281.141,104.006c0-.269-.022-.539.005-.8a.806.806,0,0,1,.808-.786c.493-.039.908.158.963.663a9.031,9.031,0,0,1,0,1.97.794.794,0,0,1-.96.676.824.824,0,0,1-.813-.79,9.142,9.142,0,0,1-.005-.929" transform="translate(-234.332 -85.362)" fill="#fff"/>
    <path id="Path_21409" data-name="Path 21409" d="M190.236,104.06a5.384,5.384,0,0,1-.008.866.855.855,0,0,1-.951.784.836.836,0,0,1-.881-.854,15.238,15.238,0,0,1,0-1.55.866.866,0,0,1,.894-.907.89.89,0,0,1,.953.855,7.556,7.556,0,0,1,0,.806h-.008" transform="translate(-157.016 -85.352)" fill="#fff"/>
    <path id="Path_21410" data-name="Path 21410" d="M217.563,104.074c0-.289-.023-.581.005-.867a.811.811,0,0,1,.8-.793c.495-.045.912.153.971.653a8.892,8.892,0,0,1,.008,1.968.791.791,0,0,1-.955.68.825.825,0,0,1-.831-.835c-.02-.267,0-.537,0-.806Z" transform="translate(-181.338 -85.36)" fill="#fff"/>
    <path id="Path_21411" data-name="Path 21411" d="M302.865,104.088c0,.269.017.538,0,.805a.911.911,0,0,1-1.8.078,9.311,9.311,0,0,1,0-1.79.814.814,0,0,1,.952-.766.833.833,0,0,1,.861.868c.017.268,0,.537,0,.806h0" transform="translate(-250.903 -85.364)" fill="#fff"/>
  </g>
</svg>
