<svg id="Group_712" data-name="Group 712" xmlns="http://www.w3.org/2000/svg" xmlns:xlink="http://www.w3.org/1999/xlink" width="69.828" height="66.009" viewBox="0 0 69.828 66.009">
  <defs>
    <clipPath id="clip-path">
      <rect id="Rectangle_476" data-name="Rectangle 476" width="69.828" height="66.009" fill="#fff"/>
    </clipPath>
  </defs>
  <g id="Group_712-2" data-name="Group 712" clip-path="url(#clip-path)">
    <path id="Path_21428" data-name="Path 21428" d="M35.543,33q0,14.318,0,28.636c0,2.9-1.479,4.37-4.4,4.37H4.326C1.509,66.009,0,64.514,0,61.72Q0,33,0,4.289C0,1.53,1.514,0,4.246,0Q17.771,0,31.3,0c2.739,0,4.247,1.522,4.247,4.288q0,14.358,0,28.715M9.549,2.539H4.367c-1.461,0-1.828.365-1.828,1.821q0,28.641,0,57.281c0,1.459.367,1.828,1.822,1.828H31.018c1.672,0,1.986-.313,1.986-1.983Q33,33,33,4.523c0-.185,0-.37,0-.555a1.289,1.289,0,0,0-1.428-1.424c-1.19-.016-2.38,0-3.57,0H26.019c0,.536.013.958,0,1.378a3.775,3.775,0,0,1-3.722,3.688q-4.522.051-9.044,0A3.763,3.763,0,0,1,9.559,4.314a15,15,0,0,1-.011-1.775m2.512.026c0,.444-.015.811,0,1.177A1.252,1.252,0,0,0,13.417,5.07q4.354.024,8.708,0a1.255,1.255,0,0,0,1.354-1.328c.019-.384,0-.769,0-1.177Z" transform="translate(0 0)" fill="#fff"/>
    <path id="Path_21429" data-name="Path 21429" d="M203.025,102.136a4.345,4.345,0,0,0-4.434-3.8c-5.685-.013-11.37,0-17.054-.005a4.218,4.218,0,0,1-.791-.023,1.259,1.259,0,0,1,.029-2.5,4.757,4.757,0,0,1,.792-.018h16.5c4.111,0,6.656,2.022,7.568,6.008.023.1.053.2.092.34.564,0,1.116-.011,1.669,0a4,4,0,0,1,3.98,3.919c.031,1.189.021,2.38,0,3.569a1.269,1.269,0,1,1-2.527.007c-.019-1.057,0-2.115-.007-3.173-.008-1.251-.536-1.776-1.788-1.787-.421,0-.843,0-1.384,0v.945q0,10.669,0,21.338c0,1.463-.368,1.834-1.816,1.835-1.849,0-3.7,0-5.527,0-1.488,3.936-3.813,5.789-7.117,5.691a7.071,7.071,0,0,1-6.721-5.691c-1.09,0-2.2.006-3.306,0-.95-.007-1.512-.471-1.529-1.239-.018-.795.566-1.289,1.552-1.3,1.082-.007,2.165,0,3.3,0a7.134,7.134,0,0,1,3.137-4.588,6.772,6.772,0,0,1,4.067-1.094,7.038,7.038,0,0,1,6.564,5.643h4.824V116.1H181.472c-1.456,0-1.824-.368-1.824-1.825q0-5.235,0-10.47c0-1.247.419-1.666,1.663-1.667q10.391,0,20.782,0Zm-9.356,11.36h9.419v-8.787h-9.419Zm-11.444.02h8.8v-8.81h-8.8Zm13.606,14.037a4.441,4.441,0,1,0-4.47,4.413,4.451,4.451,0,0,0,4.47-4.413" transform="translate(-141.565 -75.478)" fill="#00e8cc"/>
    <path id="Path_21430" data-name="Path 21430" d="M23.935,127.83q0-6.9,0-13.8c0-1.354.392-1.748,1.74-1.748q10.944,0,21.889,0c1.358,0,1.758.393,1.758,1.731q0,13.8,0,27.6c0,.631-.032,1.227-.655,1.588-.67.388-1.211.054-1.75-.314-.677-.461-1.388-.877-2.033-1.378a.928.928,0,0,0-1.317.02c-.738.554-1.536,1.029-2.3,1.55a1.368,1.368,0,0,1-1.691-.008c-.806-.552-1.643-1.061-2.431-1.638a.761.761,0,0,0-1.046.011c-.794.568-1.627,1.082-2.434,1.634a1.366,1.366,0,0,1-1.691,0c-.829-.567-1.651-1.146-2.514-1.655a1.034,1.034,0,0,0-.88,0c-.8.461-1.558.994-2.317,1.522a1.46,1.46,0,0,1-1.682.277,1.507,1.507,0,0,1-.656-1.506q.014-6.939.005-13.878m2.6-12.972V139.7c.569-.379,1.06-.681,1.524-1.021a1.464,1.464,0,0,1,1.895-.012c.755.534,1.56,1,2.3,1.554a.846.846,0,0,0,1.185-.02c.723-.532,1.5-.983,2.23-1.511a1.5,1.5,0,0,1,1.961.006c.773.554,1.56,1.092,2.381,1.57a1.032,1.032,0,0,0,.879,0c.842-.493,1.648-1.051,2.448-1.613a1.44,1.44,0,0,1,1.828,0c.5.349,1.021.663,1.586,1.027V114.858Z" transform="translate(-18.857 -88.48)" fill="#fff"/>
    <path id="Path_21431" data-name="Path 21431" d="M58.758,54.841a11.35,11.35,0,0,1,6.133,1.818c.832.543,1.062,1.262.623,1.922-.422.634-1.141.722-1.95.233A8.644,8.644,0,0,0,54,58.8a1.248,1.248,0,0,1-1.856-.334,1.261,1.261,0,0,1,.5-1.771,11.292,11.292,0,0,1,6.123-1.854" transform="translate(-40.939 -43.216)" fill="#00e8cc"/>
    <path id="Path_21432" data-name="Path 21432" d="M65.159,78.741a7.276,7.276,0,0,1,4.389,1.565,1.273,1.273,0,1,1-1.523,2.02,4.77,4.77,0,0,0-5.949.015A1.273,1.273,0,1,1,60.587,80.3a7.5,7.5,0,0,1,4.572-1.554" transform="translate(-47.228 -62.05)" fill="#00e8cc"/>
    <path id="Path_21433" data-name="Path 21433" d="M66.637,152.694c-.191,1.471-.549,1.977-1.371,1.955s-1.131-.5-1.281-1.93a19.284,19.284,0,0,1-1.977-1.059,3.826,3.826,0,0,1-1.695-3.24,1.253,1.253,0,0,1,2.491-.269,2.729,2.729,0,0,0,4.259,1.619,1.367,1.367,0,0,0-.049-2.4c-.75-.434-1.577-.731-2.364-1.1a21.489,21.489,0,0,1-1.986-.975,3.457,3.457,0,0,1-1.865-3.416,3.965,3.965,0,0,1,2.419-3.452c.238-.112.491-.192.732-.285.231-1.442.608-1.937,1.428-1.883.773.051,1.138.571,1.222,1.786.343.128.714.247,1.068.4a3.732,3.732,0,0,1,2.393,3.512,1.256,1.256,0,0,1-1.181,1.334,1.206,1.206,0,0,1-1.332-1.174,1.6,1.6,0,0,0-1.427-1.549,2.546,2.546,0,0,0-2.59.78,1.161,1.161,0,0,0,.382,1.774c.7.411,1.474.7,2.215,1.045.694.322,1.413.6,2.074.976a3.628,3.628,0,0,1,2.07,3.627,3.991,3.991,0,0,1-2.615,3.561c-.335.143-.687.245-1.021.363" transform="translate(-47.528 -107.37)" fill="#fff"/>
  </g>
</svg>
