<svg xmlns="http://www.w3.org/2000/svg" xmlns:xlink="http://www.w3.org/1999/xlink" width="63.374" height="64.946" viewBox="0 0 63.374 64.946">
  <defs>
    <clipPath id="clip-path">
      <rect id="Rectangle_477" data-name="Rectangle 477" width="63.374" height="64.946" fill="#fff"/>
    </clipPath>
  </defs>
  <g id="Group_713" data-name="Group 713" clip-path="url(#clip-path)">
    <path id="Path_21434" data-name="Path 21434" d="M157.748,0c.629.786,1.245,1.583,1.9,2.351a1.971,1.971,0,0,0,.734.54c.723.291,1.473.512,2.2.786.824.309,1.085.977.51,1.635a6.618,6.618,0,0,0-1.668,5.166.9.9,0,0,1-1.344.943,6.643,6.643,0,0,0-5.418,0,.91.91,0,0,1-1.35-1,6.461,6.461,0,0,0-1.627-5.051.944.944,0,0,1,.535-1.683A6.226,6.226,0,0,0,156.452.6a3.68,3.68,0,0,1,.534-.6Zm1.907,9.434a4.467,4.467,0,0,1,1.33-4.275A9.62,9.62,0,0,1,158.84,4.3a10.18,10.18,0,0,1-1.541-1.79,4.383,4.383,0,0,1-3.653,2.561A4.622,4.622,0,0,1,155.125,9.4a4.5,4.5,0,0,1,4.53.034" transform="translate(-125.691)" fill="#00e8cc"/>
    <path id="Path_21435" data-name="Path 21435" d="M219.233,150.3c.179-2.268.394-4.434.511-6.605a9.431,9.431,0,0,1,3.729-7.365c2.119-1.643,4.089-3.479,6.215-5.113a2.291,2.291,0,0,0,.971-1.923c.146-2.785.34-5.567.512-8.35a3.663,3.663,0,0,1,3.9-3.487.721.721,0,0,0,.81-.476,3.653,3.653,0,0,1,4.191-1.833,3.615,3.615,0,0,1,2.763,3.644c-.138,3.017-.35,6.032-.553,9.046-.165,2.444-.283,4.895-.558,7.327a24.972,24.972,0,0,1-6.164,13.639c-.206.241-.413.481-.624.717-.2.218-.4.43-.7.753.335.017.552.022.767.039a1.985,1.985,0,0,1,1.888,1.816q.085,3.261,0,6.525a1.959,1.959,0,0,1-1.967,1.8c-2.049.032-4.1.02-6.149.008a.948.948,0,1,1,.017-1.891c1.86-.013,3.719-.024,5.579.007.54.009.689-.171.681-.688-.025-1.69-.021-3.381,0-5.071.005-.457-.121-.629-.607-.627q-7.924.023-15.849,0c-.464,0-.627.127-.62.608.025,1.732.023,3.465,0,5.2-.006.452.155.579.59.575,1.817-.018,3.635-.01,5.452-.007.8,0,1.228.337,1.228.95s-.428.949-1.228.95c-1.881,0-3.761.007-5.642,0a2.129,2.129,0,0,1-2.291-2.3c-.007-1.817,0-3.635,0-5.452a2.148,2.148,0,0,1,2.416-2.419c.228,0,.456,0,.741,0m1.915,0h.792c2.811,0,5.622-.033,8.431.02a2.489,2.489,0,0,0,1.979-.826,24.878,24.878,0,0,0,7.742-17.176c.111-2.954.376-5.9.566-8.854.1-1.539.224-3.078.272-4.618a1.8,1.8,0,0,0-2.625-1.717,2.049,2.049,0,0,0-1.025,1.906c-.1,1.835-.225,3.669-.341,5.5-.183,2.91-.435,5.817-.521,8.73a5.039,5.039,0,0,1-1.4,3.544q-2.064,2.149-4.143,4.284c-.427.439-.849.888-1.312,1.287a.863.863,0,0,1-1.257-.044.875.875,0,0,1-.077-1.257,4.229,4.229,0,0,1,.39-.415c1.636-1.681,3.284-3.35,4.9-5.049a4.251,4.251,0,0,0,.843-1.243,1.674,1.674,0,0,0-1.184-2.321,2.4,2.4,0,0,0-2.245.561q-3.494,2.886-6.953,5.814a6.186,6.186,0,0,0-2.2,4.284c-.143,1.471-.261,2.945-.384,4.418-.086,1.029-.163,2.059-.251,3.173m13.509-19.8q.352-5.544.7-11.06a1.818,1.818,0,0,0-2.3,1.684c-.075,1.751-.226,3.5-.336,5.248-.077,1.214-.14,2.43-.206,3.589l2.142.539" transform="translate(-179.461 -95.535)" fill="#fff"/>
    <path id="Path_21436" data-name="Path 21436" d="M8.544,150.35c-.452-.514-.839-.951-1.222-1.392a25.967,25.967,0,0,1-6.49-16.267c-.208-4.305-.556-8.6-.809-12.907a6.079,6.079,0,0,1,.16-2.124,3.421,3.421,0,0,1,3.1-2.514A3.514,3.514,0,0,1,6.955,117.1a.693.693,0,0,0,.772.435,3.668,3.668,0,0,1,3.919,3.535c.191,3.037.4,6.073.586,9.11a.946.946,0,0,0,.442.75c1.875,1.512,3.724,3.056,5.581,4.59.375.31.731.643,1.121.933a9.124,9.124,0,0,1,3.685,7.188c.132,2.213.339,4.422.522,6.741.357,0,.705-.01,1.053,0a2.077,2.077,0,0,1,2.1,2.1q.031,2.98,0,5.961a2.076,2.076,0,0,1-2.094,2.1c-2.008.024-4.016.014-6.024,0a.951.951,0,1,1,.009-1.894c1.86-.011,3.721-.021,5.58.007.511.008.652-.156.645-.653-.026-1.712-.021-3.424,0-5.136,0-.428-.108-.6-.567-.595q-7.958.02-15.917,0c-.444,0-.589.142-.585.582.018,1.733.021,3.467,0,5.2-.006.485.18.605.635.6,1.839-.021,3.678-.014,5.517-.006.762,0,1.25.5,1.107,1.121a.914.914,0,0,1-.95.773c-2.071.008-4.143.028-6.214-.011a2,2,0,0,1-1.963-1.954c-.044-2.07-.05-4.143,0-6.213.03-1.264.892-1.9,2.638-2.021m13.07.035a2.191,2.191,0,0,0,.031-.318q-.269-3.412-.545-6.823a6.717,6.717,0,0,0-2.4-4.859c-2.259-1.877-4.493-3.784-6.775-5.632a3.618,3.618,0,0,0-1.538-.666,1.73,1.73,0,0,0-1.774.745,1.644,1.644,0,0,0-.083,1.855,5.244,5.244,0,0,0,.838,1.1c1.671,1.736,3.362,3.451,5.04,5.18a.954.954,0,0,1,.106,1.451.939.939,0,0,1-1.405-.074c-1.879-1.916-3.764-3.827-5.6-5.782a3.924,3.924,0,0,1-1.1-3.076,5.935,5.935,0,0,0-.023-.822q-.294-4.649-.593-9.3c-.1-1.56-.164-3.124-.317-4.679a1.755,1.755,0,0,0-2.007-1.654,1.808,1.808,0,0,0-1.6,1.944c0,.253.024.506.041.76.24,3.753.493,7.505.716,11.259a32.029,32.029,0,0,0,1.324,8.418,26.266,26.266,0,0,0,7.113,10.705,1.248,1.248,0,0,0,.792.252c3.043.017,6.087.011,9.13.011ZM7.453,119.5l.709,11.08,2.1-.544a.287.287,0,0,0,.029-.1c-.185-2.95-.36-5.9-.565-8.85A1.775,1.775,0,0,0,7.453,119.5" transform="translate(0 -95.615)" fill="#fff"/>
    <path id="Path_21437" data-name="Path 21437" d="M121.7,107.4A13.305,13.305,0,1,1,135.02,94.091,13.324,13.324,0,0,1,121.7,107.4M116.98,96.541a6.036,6.036,0,0,1,.541-7.954,5.972,5.972,0,0,1,7.409-.765,5.766,5.766,0,0,1,2.442,3.139,6.037,6.037,0,0,1-.936,5.583,8.916,8.916,0,0,1,3.665,5.164,11.27,11.27,0,0,0,.01-15.335,11.379,11.379,0,1,0-16.8,15.347,8.921,8.921,0,0,1,3.673-5.18m4.762,8.947a11.486,11.486,0,0,0,6.294-1.912.659.659,0,0,0,.335-.775,6.84,6.84,0,0,0-2.986-4.664.712.712,0,0,0-.854-.038,5.769,5.769,0,0,1-5.64.006.753.753,0,0,0-.908.06,6.868,6.868,0,0,0-2.954,4.686.623.623,0,0,0,.339.716,11.6,11.6,0,0,0,6.373,1.923m4.03-12.653a4.066,4.066,0,1,0-4.052,4.079,4.051,4.051,0,0,0,4.052-4.079" transform="translate(-90.03 -67.099)" fill="#00e8cc"/>
    <path id="Path_21438" data-name="Path 21438" d="M78.342,27.826a2.1,2.1,0,0,1-.29.59,6.214,6.214,0,0,0-1.661,5.025c.1.987-.554,1.442-1.474,1.048a6.424,6.424,0,0,0-5.23.011c-.886.365-1.536-.084-1.441-1.027a6.393,6.393,0,0,0-1.633-5.038c-.623-.727-.374-1.443.578-1.667a6.362,6.362,0,0,0,4.234-3.081c.5-.846,1.284-.835,1.807.023a6.151,6.151,0,0,0,4.187,3.033,1.067,1.067,0,0,1,.924,1.084m-3.709,4.7a4.529,4.529,0,0,1,1.358-4.37,4.439,4.439,0,0,1-3.67-2.664,4.427,4.427,0,0,1-3.571,2.661,9.929,9.929,0,0,1,1.221,1.978,9.94,9.94,0,0,1,.184,2.315,4.55,4.55,0,0,1,4.478.08" transform="translate(-55.042 -19.151)" fill="#00e8cc"/>
    <path id="Path_21439" data-name="Path 21439" d="M245.448,34.632c-.683-.2-1.5-.41-2.292-.692a1.985,1.985,0,0,0-1.4,0c-.655.23-1.329.411-2,.6-.844.239-1.358-.123-1.4-1.009-.036-.759,0-1.522-.055-2.279a2.1,2.1,0,0,0-.293-.927c-.41-.663-.889-1.283-1.319-1.934-.473-.715-.3-1.407.517-1.584a6.56,6.56,0,0,0,4.427-3.224.894.894,0,0,1,1.615-.014,6.6,6.6,0,0,0,4.421,3.233.914.914,0,0,1,.5,1.616,6.358,6.358,0,0,0-1.647,5.1.968.968,0,0,1-1.071,1.12m.684-6.468a4.49,4.49,0,0,1-3.7-2.679,4.5,4.5,0,0,1-3.7,2.7,4.413,4.413,0,0,1,1.415,4.337,4.63,4.63,0,0,1,4.639.016,4.344,4.344,0,0,1,1.345-4.375" transform="translate(-196.367 -19.155)" fill="#00e8cc"/>
  </g>
</svg>
