<svg xmlns="http://www.w3.org/2000/svg" width="28.471" height="28.471" viewBox="0 0 28.471 28.471">
  <g id="Group_9226" data-name="Group 9226" transform="translate(0 0)">
    <path id="Path_64" data-name="Path 64" d="M24.912,0H3.559A3.562,3.562,0,0,0,0,3.559V24.912a3.562,3.562,0,0,0,3.559,3.559H24.912a3.562,3.562,0,0,0,3.559-3.559V3.559A3.562,3.562,0,0,0,24.912,0Z" fill="#fff"/>
    <path id="Path_65" data-name="Path 65" d="M18,12.615H15.667V10.769c0-.51.418-.462.933-.462h.933V8H15.667a2.816,2.816,0,0,0-1.98.811,2.754,2.754,0,0,0-.82,1.958v1.846H11v2.308h1.867V20h2.8V14.923h1.4Z" fill="#3f5876" fill-rule="evenodd"/>
  </g>
</svg>
