<svg xmlns="http://www.w3.org/2000/svg" width="28.471" height="28.471" viewBox="0 0 28.471 28.471">
  <g id="Group_9224" data-name="Group 9224" transform="translate(-88.529)">
    <path id="Path_60" data-name="Path 60" d="M110.61,0H94.92a6.39,6.39,0,0,0-6.39,6.39V22.08a6.39,6.39,0,0,0,6.39,6.39h15.69A6.39,6.39,0,0,0,117,22.08V6.39A6.39,6.39,0,0,0,110.61,0Z" fill="#fff"/>
    <path id="Path_61" data-name="Path 61" d="M99.44,12.315H97.162v6.672H99.44Z" fill="#3f5876"/>
    <path id="Path_62" data-name="Path 62" d="M99.057,9.2a1.419,1.419,0,0,0-.733-.2,1.439,1.439,0,0,0-.507.092,1.337,1.337,0,0,0-.43.262,1.2,1.2,0,0,0-.286.391,1.1,1.1,0,0,0-.1.461,1.123,1.123,0,0,0,.226.664,1.3,1.3,0,0,0,.594.439,1.447,1.447,0,0,0,.763.065,1.367,1.367,0,0,0,.675-.33,1.169,1.169,0,0,0,.36-.614,1.1,1.1,0,0,0-.076-.692A1.233,1.233,0,0,0,99.057,9.2Z" fill="#3f5876"/>
    <path id="Path_63" data-name="Path 63" d="M103.1,12.315H100.9L100.894,19h2.278V15.7c0-.868.183-1.709,1.367-1.709s1.185,1,1.185,1.771v3.226H108v-3.66c0-1.8-.463-3.177-2.741-3.177a2.6,2.6,0,0,0-1.246.266,2.307,2.307,0,0,0-.918.809Z" fill="#3f5876"/>
  </g>
</svg>
