<svg id="Group_8451" data-name="Group 8451" xmlns="http://www.w3.org/2000/svg" xmlns:xlink="http://www.w3.org/1999/xlink" width="160" height="41.469" viewBox="0 0 160 41.469">
  <defs>
    <clipPath id="clip-path">
      <rect id="Rectangle_493" data-name="Rectangle 493" width="160" height="41.469" fill="none"/>
    </clipPath>
  </defs>
  <g id="Group_755" data-name="Group 755" clip-path="url(#clip-path)">
    <path id="Path_21475" data-name="Path 21475" d="M6.037,35.56a20.729,20.729,0,0,0,28.988,0ZM.014,23.741A20.585,20.585,0,0,0,1.807,29.65H22.3a2.955,2.955,0,1,0,0-5.909Zm34.069,0a2.955,2.955,0,0,0,0,5.909h5.172a20.59,20.59,0,0,0,1.792-5.909ZM1.759,11.922A20.59,20.59,0,0,0,0,17.832H6.979a2.955,2.955,0,0,0,0-5.91Zm17.35,0a2.955,2.955,0,0,0,0,5.91H41.063a20.6,20.6,0,0,0-1.759-5.91ZM6.037,5.909H35.025a20.73,20.73,0,0,0-28.988,0" fill="#fff"/>
    <path id="Path_21476" data-name="Path 21476" d="M332.756,31.519v27.13h-3.443l-.07-3.409A7.435,7.435,0,0,1,322.39,59c-5.113,0-8.9-3.826-8.9-9.565,0-5.809,3.791-9.7,8.9-9.7a7.353,7.353,0,0,1,6.817,3.722V31.519Zm-3.548,17.843c0-3.93-2.435-6.574-6.017-6.574-3.617,0-6.017,2.644-6.017,6.609,0,3.93,2.4,6.539,6.017,6.539,3.583,0,6.017-2.609,6.017-6.574" transform="translate(-266.392 -26.784)" fill="#fff"/>
    <path id="Path_21477" data-name="Path 21477" d="M474.691,86.51v17.043c0,5.739-4.209,9.53-10.574,9.53a13.361,13.361,0,0,1-8.209-2.4l.765-2.817a12.447,12.447,0,0,0,7.339,2.156c4.278,0,7.13-2.609,7.13-6.574v-1.7a7.393,7.393,0,0,1-6.817,3.687c-5.113,0-8.9-3.9-8.9-9.7,0-5.739,3.791-9.565,8.9-9.565a7.434,7.434,0,0,1,6.852,3.757l.07-3.409ZM471.143,95.8c0-3.93-2.435-6.574-6.017-6.574-3.617,0-6.017,2.609-6.017,6.539,0,3.965,2.4,6.609,6.017,6.609,3.583,0,6.017-2.644,6.017-6.574" transform="translate(-387.005 -73.218)" fill="#fff"/>
    <path id="Path_21478" data-name="Path 21478" d="M623.539,95.727c0,5.809-3.791,9.7-8.869,9.7a7.368,7.368,0,0,1-6.817-3.652v10.956H604.3V86.51h3.409l.1,3.374a7.335,7.335,0,0,1,6.852-3.722c5.078,0,8.869,3.826,8.869,9.565m-3.687.035c0-3.93-2.4-6.539-6.017-6.539-3.583,0-5.982,2.643-5.982,6.574s2.4,6.574,5.982,6.574c3.617,0,6.017-2.644,6.017-6.609" transform="translate(-513.522 -73.218)" fill="#fff"/>
    <path id="Path_21479" data-name="Path 21479" d="M752.849,93.4v11.687h-3.444l-.07-3.27a7.186,7.186,0,0,1-6.33,3.617c-3.722,0-6.261-2.226-6.261-5.565,0-3.478,3.1-5.774,7.756-5.774a23.3,23.3,0,0,1,4.8.522v-.835c0-2.956-1.913-4.8-5.044-4.8a6.534,6.534,0,0,0-4.765,1.809l-1.565-2.122a10.236,10.236,0,0,1,7.2-2.5c4.626,0,7.722,2.887,7.722,7.235M749.3,97.049a21.349,21.349,0,0,0-4.348-.487c-2.713,0-4.487,1.287-4.487,3.2,0,1.878,1.287,3.1,3.548,3.1a5.5,5.5,0,0,0,5.287-5.809" transform="translate(-626.067 -73.218)" fill="#fff"/>
    <path id="Path_21480" data-name="Path 21480" d="M844.539,114.565l.383-2.887a3.43,3.43,0,0,0,1.531.313c1.565,0,2.191-1.009,2.956-2.469l1.287-2.783-8.139-18.261h3.9l6.087,14.4,5.809-14.4h3.9l-9.391,21.5c-1.287,3.1-2.643,5.078-5.809,5.078a5.95,5.95,0,0,1-2.5-.487" transform="translate(-715.984 -75.186)" fill="#fff"/>
    <path id="Path_21481" data-name="Path 21481" d="M971.33,103.379l1.391-2.191a9.585,9.585,0,0,0,5.357,1.461c2.191,0,3.652-1.009,3.652-2.539,0-1.461-1.5-2.261-3.548-2.852l-1.774-.487c-3.026-.835-5.113-1.983-5.113-4.869,0-3.444,2.783-5.739,6.922-5.739a11.631,11.631,0,0,1,6.644,1.774L983.33,90.3a9.011,9.011,0,0,0-4.87-1.322c-2.087,0-3.513.939-3.513,2.4,0,1.391,1.322,2.052,3.13,2.574l1.774.487c2.991.8,5.53,2.261,5.53,5.391,0,3.374-2.887,5.6-7.339,5.6a10.247,10.247,0,0,1-6.713-2.052" transform="translate(-825.382 -73.218)" fill="#fff"/>
  </g>
</svg>
