<svg xmlns="http://www.w3.org/2000/svg" width="28" height="28.471" viewBox="0 0 28 28.471">
  <g id="Group_9225" data-name="Group 9225" transform="translate(-44.469)">
    <path id="Path_66" data-name="Path 66" d="M72.469,24.516a3.988,3.988,0,0,1-1.139,2.8,3.856,3.856,0,0,1-2.75,1.158H48.358a3.856,3.856,0,0,1-2.75-1.158,3.988,3.988,0,0,1-1.139-2.8V3.954a3.988,3.988,0,0,1,1.139-2.8A3.856,3.856,0,0,1,48.358,0H68.58a3.856,3.856,0,0,1,2.75,1.158,3.988,3.988,0,0,1,1.139,2.8Z" fill="#fff"/>
    <path id="Path_67" data-name="Path 67" d="M63.877,11a4.877,4.877,0,0,1-1.352.417A3.388,3.388,0,0,0,63.877,10a6.252,6.252,0,0,1-1.71.65A2.1,2.1,0,0,0,60.549,10a2.208,2.208,0,0,0-2.081,2.368v.947c-1.8,0-3.561-1.443-4.655-2.842a2.369,2.369,0,0,0-.3,1.164,3.037,3.037,0,0,0,1.35,2.152,4.049,4.049,0,0,1-1.352-.474v.027a2.09,2.09,0,0,0,1.763,2.095,2.709,2.709,0,0,1-1.28.247c.282.917,1.7,1.4,2.672,1.421a5.5,5.5,0,0,1-3.155.947,3.15,3.15,0,0,1-.451-.011A6.745,6.745,0,0,0,56.665,19a6.21,6.21,0,0,0,6.311-6.333c0-.1,0-.437-.008-.535A3.56,3.56,0,0,0,63.877,11Z" fill="#3f5876"/>
  </g>
</svg>
